<?xml version="1.0" encoding="UTF-8"?>
<svg version="1.1" xmlns="http://www.w3.org/2000/svg" width="512" height="512">
<path d="M0 0 C1.06992188 0.53496094 2.13984375 1.06992188 3.2421875 1.62109375 C11.29191706 5.98049274 17.50421267 11.66151807 24 18 C25.07894531 18.96873047 25.07894531 18.96873047 26.1796875 19.95703125 C42.76520752 35.24368524 52.03083976 58.8834821 54 81 C54.13360219 84.54831916 54.13092864 88.09232127 54.12025452 91.64282227 C54.12153615 93.21503414 54.12153615 93.21503414 54.12284368 94.81900787 C54.12448595 98.31815826 54.11899766 101.81726031 54.11352539 105.31640625 C54.11324322 107.82986958 54.11340183 110.34333299 54.1139679 112.85679626 C54.11419534 118.26147065 54.11136569 123.66612957 54.10573006 129.07080078 C54.0975873 136.8849514 54.09499699 144.69909619 54.09374207 152.51325059 C54.09155591 165.19259355 54.08490764 177.87193007 54.07543945 190.55126953 C54.06625406 202.86474577 54.05917874 215.17822025 54.05493164 227.49169922 C54.05466892 228.2512813 54.05440619 229.01086339 54.05413551 229.79346311 C54.05283043 233.60423619 54.05156673 237.41500929 54.05032361 241.22578239 C54.03996457 272.81719398 54.02153357 304.40859356 54 336 C31.23 336 8.46 336 -15 336 C-15 302.01 -15 268.02 -15 233 C-36.78 233 -58.56 233 -81 233 C-81 266.99 -81 300.98 -81 336 C-103.44 336 -125.88 336 -149 336 C-149.088334 303.18391756 -149.16213182 270.36795137 -149.20426132 237.55178566 C-149.20926359 233.66945195 -149.21444094 229.78711849 -149.21972656 225.90478516 C-149.2207758 225.1319469 -149.22182505 224.35910865 -149.22290608 223.56285106 C-149.24026775 211.08164266 -149.27178182 198.60050865 -149.30861118 186.11934425 C-149.34613904 173.29362123 -149.36826076 160.46793692 -149.37635398 147.64216125 C-149.38181732 139.74057638 -149.39901425 131.83920184 -149.43166587 123.93768178 C-149.4554932 117.85851722 -149.45779022 111.77953007 -149.45243073 105.70031357 C-149.45352371 103.22129784 -149.46137969 100.74227353 -149.4768219 98.26330566 C-149.6589913 67.48827102 -142.5423948 41.18039424 -120.671875 18.67578125 C-119.34929687 17.35126953 -119.34929687 17.35126953 -118 16 C-117.28328125 15.27167969 -116.5665625 14.54335937 -115.828125 13.79296875 C-85.0195774 -15.56780875 -36.84497247 -18.58276888 0 0 Z M-72 67 C-81.21333723 78.09788348 -81.42195192 89.43129518 -81.29296875 103.16015625 C-81.28736531 104.91848893 -81.28309875 106.67682634 -81.28010559 108.43516541 C-81.26871565 113.0367045 -81.23929963 117.6379542 -81.20599365 122.23937988 C-81.16973452 127.7744626 -81.15610372 133.3096427 -81.13863373 138.84481049 C-81.10965816 147.2300742 -81.05213055 155.61470441 -81 164 C-59.22 164 -37.44 164 -15 164 C-14.88352273 149.84768789 -14.88352273 149.84768789 -14.8046875 135.6953125 C-14.7808402 129.91716695 -14.75272682 124.13927661 -14.69824219 118.36132812 C-14.65455957 113.69936208 -14.6308158 109.03767 -14.62049103 104.37551498 C-14.61313969 102.60302294 -14.5987848 100.83054471 -14.57707977 99.05817032 C-14.41497596 85.2639202 -15.5791335 75.6200142 -25.48828125 65.203125 C-32.68908324 58.88702496 -40.5980412 56.60992649 -49.9921875 56.72265625 C-58.32373224 57.4908896 -66.05169416 61.12996135 -72 67 Z " fill="#625FB2" transform="translate(149,176)"/>
<path d="M0 0 C0 22.44 0 44.88 0 68 C-3.96 68.99 -7.92 69.98 -12 71 C-22.1378273 76.06891365 -27.40792679 81.89028772 -31.16174316 92.5687561 C-32.90593543 99.70827327 -32.6057828 107.04476755 -32.609375 114.35546875 C-32.62438157 116.11096198 -32.64111386 117.86644122 -32.65948486 119.62190247 C-32.7028929 124.20684513 -32.72309808 128.79159744 -32.73822021 133.37670898 C-32.75788777 138.06961195 -32.79984646 142.76231219 -32.83984375 147.45507812 C-32.914858 156.63669014 -32.96325868 165.81815499 -33 175 C-22.11 175 -11.22 175 0 175 C0 197.77 0 220.54 0 244 C-10.89 244 -21.78 244 -33 244 C-33 277.99 -33 311.98 -33 347 C-55.44 347 -77.88 347 -101 347 C-101.088334 314.18391756 -101.16213182 281.36795137 -101.20426132 248.55178566 C-101.20926359 244.66945195 -101.21444094 240.78711849 -101.21972656 236.90478516 C-101.2207758 236.1319469 -101.22182505 235.35910865 -101.22290608 234.56285106 C-101.24026775 222.08164266 -101.27178182 209.60050865 -101.30861118 197.11934425 C-101.34613904 184.29362123 -101.36826076 171.46793692 -101.37635398 158.64216125 C-101.38181732 150.74057638 -101.39901425 142.83920184 -101.43166587 134.93768178 C-101.4554932 128.85851722 -101.45779022 122.77953007 -101.45243073 116.70031357 C-101.45352371 114.22129784 -101.46137969 111.74227353 -101.4768219 109.26330566 C-101.6589913 78.48827102 -94.5423948 52.18039424 -72.671875 29.67578125 C-71.34929687 28.35126953 -71.34929687 28.35126953 -70 27 C-69.28328125 26.27167969 -68.5665625 25.54335937 -67.828125 24.79296875 C-55.64347166 13.1809025 -39.22306302 5.45935383 -23 1.625 C-22.31317139 1.45701904 -21.62634277 1.28903809 -20.91870117 1.1159668 C-13.69076333 -0.43485191 -7.80653972 0 0 0 Z " fill="#7D7AC6" transform="translate(101,165)"/>
<path d="M0 0 C22.44 0 44.88 0 68 0 C68 109.23 68 218.46 68 331 C45.56 331 23.12 331 0 331 C0 221.77 0 112.54 0 0 Z " fill="#47449D" transform="translate(232,181)"/>
<path d="M0 0 C4.07352375 1.35784125 4.38312879 3.07745291 6.3359375 6.8515625 C6.65142044 7.4534137 6.96690338 8.05526489 7.29194641 8.675354 C7.9721884 9.97493877 8.64818565 11.27675227 9.32040405 12.58050537 C11.10388169 16.038048 12.91883651 19.4790258 14.73046875 22.921875 C15.09394913 23.61453461 15.4574295 24.30719421 15.83192444 25.02084351 C18.99894799 31.04045896 22.30949623 36.97120993 25.6875 42.875 C30.30841512 50.97842781 34.85011023 59.12056126 39.3125 67.3125 C39.88250732 68.35196777 40.45251465 69.39143555 41.03979492 70.46240234 C41.81867065 71.8983374 41.81867065 71.8983374 42.61328125 73.36328125 C43.07516846 74.21188721 43.53705566 75.06049316 44.01293945 75.93481445 C45 78 45 78 45 80 C45.68723145 80.25869873 46.37446289 80.51739746 47.08251953 80.78393555 C50.38575456 82.16079025 53.52484681 83.77628354 56.6796875 85.45703125 C57.32054291 85.79626114 57.96139832 86.13549103 58.62167358 86.48500061 C60.70780663 87.59101689 62.79157512 88.70139164 64.875 89.8125 C65.58974487 90.19271301 66.30448975 90.57292603 67.04089355 90.96466064 C78.01373846 96.80484806 88.88174728 102.80743819 99.67578125 108.97265625 C108.05664428 113.75706221 116.53098096 118.37401798 125 123 C123.64215875 127.07352375 121.92254709 127.38312879 118.1484375 129.3359375 C117.5465863 129.65142044 116.94473511 129.96690338 116.324646 130.29194641 C115.02506123 130.9721884 113.72324773 131.64818565 112.41949463 132.32040405 C108.961952 134.10388169 105.5209742 135.91883651 102.078125 137.73046875 C101.38546539 138.09394913 100.69280579 138.4574295 99.97915649 138.83192444 C93.95954104 141.99894799 88.02879007 145.30949623 82.125 148.6875 C74.02157219 153.30841512 65.87943874 157.85011023 57.6875 162.3125 C56.64803223 162.88250732 55.60856445 163.45251465 54.53759766 164.03979492 C53.58030762 164.55904541 52.62301758 165.0782959 51.63671875 165.61328125 C50.78811279 166.07516846 49.93950684 166.53705566 49.06518555 167.01293945 C47 168 47 168 45 168 C44.74130127 168.68723145 44.48260254 169.37446289 44.21606445 170.08251953 C42.83920975 173.38575456 41.22371646 176.52484681 39.54296875 179.6796875 C39.20373886 180.32054291 38.86450897 180.96139832 38.51499939 181.62167358 C37.40898311 183.70780663 36.29860836 185.79157512 35.1875 187.875 C34.80728699 188.58974487 34.42707397 189.30448975 34.03533936 190.04089355 C28.19515194 201.01373846 22.19256181 211.88174728 16.02734375 222.67578125 C11.24293779 231.05664428 6.62598202 239.53098096 2 248 C-2.05329941 246.6489002 -2.82690551 244.13622409 -4.66015625 240.53515625 C-5.00608322 239.87515121 -5.35201019 239.21514618 -5.7084198 238.53514099 C-6.44959589 237.11855944 -7.18641428 235.69969104 -7.91931152 234.27880859 C-9.45087036 231.30956329 -11.00278578 228.35114179 -12.55386353 225.39205933 C-13.32119538 223.92771796 -14.08745556 222.4628145 -14.85263062 220.99734497 C-17.57487365 215.78748474 -20.36598833 210.62233989 -23.25 205.5 C-27.21860597 198.42384381 -31.12410407 191.31490095 -35 184.1875 C-35.56493164 183.15367187 -36.12986328 182.11984375 -36.71191406 181.0546875 C-37.24010742 180.08144531 -37.76830078 179.10820312 -38.3125 178.10546875 C-38.78300781 177.24074951 -39.25351562 176.37603027 -39.73828125 175.48510742 C-41 173 -41 173 -41.85546875 170.3059082 C-42.80064514 167.81833803 -42.80064514 167.81833803 -45.23486328 166.88989258 C-46.1473584 166.59622803 -47.05985352 166.30256348 -48 166 C-50.0933967 164.94534985 -52.17297178 163.86305566 -54.2421875 162.76171875 C-54.83846954 162.44477554 -55.43475159 162.12783234 -56.04910278 161.80128479 C-57.99275389 160.76648116 -59.93402979 159.72732246 -61.875 158.6875 C-62.87708496 158.15219666 -62.87708496 158.15219666 -63.89941406 157.6060791 C-73.58949778 152.42743472 -83.2020162 147.12799983 -92.74584961 141.68359375 C-102.75204606 135.97856563 -112.86995597 130.48131495 -123 125 C-121.66402941 120.99208823 -119.27247655 120.25016597 -115.7109375 118.4453125 C-115.06451294 118.10754288 -114.41808838 117.76977325 -113.7520752 117.42176819 C-112.35814159 116.69436176 -110.96199059 115.97119221 -109.56390381 115.25180054 C-105.87587068 113.35328051 -102.20439741 111.42321079 -98.53125 109.49609375 C-97.42896561 108.91922569 -97.42896561 108.91922569 -96.30441284 108.33070374 C-90.09130221 105.07079501 -83.96557536 101.67113474 -77.875 98.1875 C-70.17695911 93.79620377 -62.45662234 89.45209324 -54.6875 85.1875 C-53.27090088 84.40379028 -53.27090088 84.40379028 -51.82568359 83.60424805 C-50.9589502 83.13027588 -50.0922168 82.65630371 -49.19921875 82.16796875 C-48.43440186 81.74797607 -47.66958496 81.3279834 -46.8815918 80.89526367 C-45 80 -45 80 -43 80 C-42.74347656 79.31639404 -42.48695313 78.63278809 -42.22265625 77.9284668 C-40.81594136 74.55914869 -39.15661637 71.36093151 -37.4375 68.14453125 C-37.09015808 67.490186 -36.74281616 66.83584076 -36.38494873 66.16166687 C-35.25944741 64.043766 -34.12994623 61.92803231 -33 59.8125 C-32.21905611 58.34636451 -31.43813172 56.88021863 -30.65722656 55.4140625 C-26.38462333 47.4033498 -22.07425271 39.4170108 -17.62719727 31.50146484 C-13.39004148 23.95360533 -9.2960154 16.32839545 -5.20019531 8.703125 C-4.6687793 7.71699219 -4.13736328 6.73085937 -3.58984375 5.71484375 C-3.11409912 4.82917725 -2.63835449 3.94351074 -2.14819336 3.03100586 C-1 1 -1 1 0 0 Z " fill="#EDED51" transform="translate(387,0)"/>
<path d="M0 0 C11.22 0 22.44 0 34 0 C34 109.23 34 218.46 34 331 C22.78 331 11.56 331 0 331 C0 221.77 0 112.54 0 0 Z " fill="#615FB2" transform="translate(232,181)"/>
<path d="M0 0 C3.96037056 1.32012352 4.21906837 2.75575384 6.1171875 6.4140625 C6.71740723 7.55584961 7.31762695 8.69763672 7.93603516 9.87402344 C8.25179504 10.48499878 8.56755493 11.09597412 8.8928833 11.72546387 C10.55992576 14.94973182 12.25841417 18.15740227 13.953125 21.3671875 C14.2953006 22.01723755 14.6374762 22.6672876 14.99002075 23.33703613 C18.08772215 29.20694615 21.33062395 34.98826879 24.625 40.75 C29.26521477 48.89580217 33.82755777 57.08006836 38.3125 65.3125 C38.88242676 66.35180664 39.45235352 67.39111328 40.03955078 68.46191406 C40.55888184 69.41936523 41.07821289 70.37681641 41.61328125 71.36328125 C42.07516846 72.21188721 42.53705566 73.06049316 43.01293945 73.93481445 C44 76 44 76 44 78 C45.03084717 78.3880481 45.03084717 78.3880481 46.08251953 78.78393555 C49.38575456 80.16079025 52.52484681 81.77628354 55.6796875 83.45703125 C56.32054291 83.79626114 56.96139832 84.13549103 57.62167358 84.48500061 C59.70780663 85.59101689 61.79157512 86.70139164 63.875 87.8125 C64.58974487 88.19271301 65.30448975 88.57292603 66.04089355 88.96466064 C77.01373846 94.80484806 87.88174728 100.80743819 98.67578125 106.97265625 C107.05664428 111.75706221 115.53098096 116.37401798 124 121 C122.64215875 125.07352375 120.92254709 125.38312879 117.1484375 127.3359375 C116.5465863 127.65142044 115.94473511 127.96690338 115.324646 128.29194641 C114.02506123 128.9721884 112.72324773 129.64818565 111.41949463 130.32040405 C107.961952 132.10388169 104.5209742 133.91883651 101.078125 135.73046875 C100.38546539 136.09394913 99.69280579 136.4574295 98.97915649 136.83192444 C92.95954104 139.99894799 87.02879007 143.30949623 81.125 146.6875 C73.02157219 151.30841512 64.87943874 155.85011023 56.6875 160.3125 C55.12829834 161.16751099 55.12829834 161.16751099 53.53759766 162.03979492 C52.1016626 162.81867065 52.1016626 162.81867065 50.63671875 163.61328125 C49.36380981 164.30611206 49.36380981 164.30611206 48.06518555 165.01293945 C46 166 46 166 44 166 C43.74130127 166.68723145 43.48260254 167.37446289 43.21606445 168.08251953 C41.83920967 171.38575475 40.22371514 174.52484603 38.54296875 177.6796875 C38.20369354 178.32063354 37.86441833 178.96157959 37.51486206 179.62194824 C36.40889884 181.70799372 35.29857415 183.79167272 34.1875 185.875 C33.80761932 186.5890802 33.42773865 187.3031604 33.03634644 188.03887939 C26.70345677 199.93665256 20.16702049 211.70564983 13.47558594 223.40576172 C11.01475145 227.73217258 8.59999539 232.08400104 6.1875 236.4375 C5.76025635 237.20819824 5.3330127 237.97889648 4.89282227 238.77294922 C3.92780393 240.51488738 2.96377472 242.25737347 2 244 C1.34 244 0.68 244 0 244 C0 163.48 0 82.96 0 0 Z " fill="#EDCB4B" transform="translate(388,2)"/>
</svg>
